<svg xmlns="http://www.w3.org/2000/svg" viewBox="0 0 48 48"><g class="nc-icon-wrapper"><path d="M10,26a9,9,0,1,0,9,9A9.01,9.01,0,0,0,10,26Zm0,16a7,7,0,1,1,7-7A7.009,7.009,0,0,1,10,42Z" data-color="color-2"/> <path d="M39,26a9,9,0,1,0,9,9A9.01,9.01,0,0,0,39,26Zm0,16a7,7,0,1,1,7-7A7.009,7.009,0,0,1,39,42Z" data-color="color-2"/> <path d="M34.71,14.444a5,5,0,1,0,4.578-8.889c-2.1-1.083-8.987-.752-10.347-.674a1,1,0,0,0-.789,1.531C28.879,7.564,32.61,13.363,34.71,14.444Z"/> <path d="M23.266,24.34l7.523-3.762c.042-.021.076-.051.117-.074l1.338,2.454A2,2,0,0,0,34,24h7a2,2,0,0,0,0-4H35.188s-2.789-5.091-2.854-5.174a3.987,3.987,0,0,0-5.123-1.4l-10,5a4,4,0,0,0-.732,6.685L22,30.154V38.5a2.5,2.5,0,0,0,5,0V29.121a2.5,2.5,0,0,0-.729-1.765Z"/></g></svg>