<svg xmlns="http://www.w3.org/2000/svg" viewBox="0 0 48 48"><g class="nc-icon-wrapper"><circle cx="21" cy="8" r="5"/> <path d="M34.891,22.345a2.074,2.074,0,0,0-2.325-1.3l-4.664.777-4.274-5.984a2.008,2.008,0,0,0-1.144-.779l-8-2L14,13H7.441L5.934,8.475A2.079,2.079,0,0,0,3.567,7.047,2,2,0,0,0,2.1,9.633l2,6A2,2,0,0,0,6,17h5.389L8.771,25.5a6,6,0,0,0,.539,4.769l2.016,3.488L9.1,42.8A2.5,2.5,0,0,0,11.5,46a2.5,2.5,0,0,0,2.426-1.9L16.4,34.06a2.5,2.5,0,0,0-.19-1.714l-1.5-3.014L21,34.215v9.143a2.6,2.6,0,0,0,2.242,2.629A2.5,2.5,0,0,0,26,43.5V33a2.5,2.5,0,0,0-.955-1.965L19.76,26.882l2.176-6.53,3.436,4.81A2,2,0,0,0,27,26a2.047,2.047,0,0,0,.329-.027l6-1A2,2,0,0,0,34.891,22.345Z"/> <path d="M46.625,10.219a1,1,0,0,0-1.406.156l-7.368,9.21-1.406-1.15a1,1,0,1,0-1.267,1.546l2.2,1.8,0,0,0,0,2.178,1.782a1,1,0,1,0,1.267-1.546L39.4,20.853l7.382-9.228A1,1,0,0,0,46.625,10.219Z" data-color="color-2"/></g></svg>