<svg xmlns="http://www.w3.org/2000/svg" viewBox="0 0 48 48"><g class="nc-icon-wrapper"><circle cx="14" cy="7" r="5"/> <path d="M43.984,21.224a2.492,2.492,0,0,0-2.76-2.208l-9,1a2.481,2.481,0,0,0-1,.335L27.113,22.79,23.494,17H28a2,2,0,0,0,1.414-.586l4-4a2,2,0,1,0-2.828-2.828L27.172,13H18.4a4.425,4.425,0,0,0-3.731,2.168l-4.42,7.857a2,2,0,0,0,.032,2l3,5a2,2,0,1,0,3.43-2.058l-2.4-4.007,1.378-2.471,4,6.392a4.429,4.429,0,0,0,.332.461c0,.052-.016.1-.016.154v16a2.5,2.5,0,0,0,5,0V29.732a4.359,4.359,0,0,0,.51-.217,2.331,2.331,0,0,0,.29-.147l7.512-4.443,8.464-.941A2.5,2.5,0,0,0,43.984,21.224Z"/></g></svg>