<svg xmlns="http://www.w3.org/2000/svg" viewBox="0 0 48 48"><g class="nc-icon-wrapper"><path d="M42,3H40.9A5,5,0,0,1,41,4V44a5,5,0,0,1-.1,1H42a3,3,0,0,0,3-3V6A3,3,0,0,0,42,3Z" data-color="color-2"/><path d="M36,1H8A3,3,0,0,0,5,4V44a3,3,0,0,0,3,3H36a3,3,0,0,0,3-3V4A3,3,0,0,0,36,1ZM9.639,8.679l-.026-.026a2.141,2.141,0,0,1,.331-3.272A2.2,2.2,0,0,1,13,5.964a2.2,2.2,0,0,1,3.361-.333l.026.025a2.138,2.138,0,0,1-.026,3.023L13,12Zm4.8,16.731A4.916,4.916,0,1,1,22,19.2a4.916,4.916,0,1,1,7.562,6.206L22,33ZM34.387,42.343l-.026.026A2.2,2.2,0,0,1,31,42.036a2.2,2.2,0,0,1-3.361.333,2.137,2.137,0,0,1-.026-3.022l.026-.026L31,36l3.361,3.321A2.137,2.137,0,0,1,34.387,42.343Z"/></g></svg>