<svg xmlns="http://www.w3.org/2000/svg" viewBox="0 0 48 48"><g class="nc-icon-wrapper"><circle cx="16" cy="26" r="2" data-color="color-2"/><circle cx="30.5" cy="23.5" r="1" data-color="color-2"/><circle cx="23.5" cy="19.5" r="1.5" data-color="color-2"/><rect x="15" y="1" width="18" height="6" rx="1"/><path d="M36.966,29.318A13.956,13.956,0,0,0,24,30a13.956,13.956,0,0,1-12.966.682A12.992,12.992,0,0,0,37,30C37,29.77,36.977,29.545,36.966,29.318Z" data-color="color-2"/><path d="M30,14.11V9H28v6.556a15,15,0,1,1-8,0V9H18v5.11a17,17,0,1,0,12,0Z"/></g></svg>