<svg xmlns="http://www.w3.org/2000/svg" viewBox="0 0 48 48"><g class="nc-icon-wrapper"><path d="M46,8H45V2.5a1.5,1.5,0,0,0-3,0V8H6V2.5a1.5,1.5,0,0,0-3,0V8H2a1,1,0,0,0,0,2H3v5.5a1.5,1.5,0,0,0,3,0V10H42v5.5a1.5,1.5,0,0,0,3,0V10h1a1,1,0,0,0,0-2Z" data-color="color-2"/> <circle cx="24" cy="17.5" r="4.5"/> <path d="M38.2,12.4a2,2,0,0,0-2.8.4L27,24H21L12.6,12.8a2,2,0,1,0-3.2,2.4L18,26.666v6.042l-4.015.846A2.5,2.5,0,0,0,12,36v8.5a2.5,2.5,0,0,0,5,0V38.028l7-1.473,7,1.473V44.5a2.5,2.5,0,0,0,5,0V36a2.5,2.5,0,0,0-1.985-2.446L30,32.708V26.666L38.6,15.2A2,2,0,0,0,38.2,12.4Z"/></g></svg>