<svg xmlns="http://www.w3.org/2000/svg" viewBox="0 0 48 48"><g class="nc-icon-wrapper"><circle cx="26" cy="7" r="5"/> <path d="M22.424,21.067,23.61,27h9.18l-1.877-9.383a4.466,4.466,0,0,0-7.228-2.6C23.639,15.046,17.309,20,17.309,20H12a2,2,0,0,0,0,4h6a1.991,1.991,0,0,0,1.235-.428Z"/> <path d="M46,29H17.2l6.631,9H38c3.113,0,9-1.672,9-8A1,1,0,0,0,46,29Z" data-color="color-2"/> <path d="M26.805,45.407l-14-19a1,1,0,1,0-1.61,1.186L12.232,29H2a1,1,0,0,0-1,1c0,6.328,5.887,8,9,8h8.864L25.2,46.593a1,1,0,0,0,1.61-1.186Z" data-color="color-2"/></g></svg>