<svg xmlns="http://www.w3.org/2000/svg" viewBox="0 0 48 48"><g class="nc-icon-wrapper"><circle cx="36" cy="7" r="5"/> <path d="M16.936,31.073A6.451,6.451,0,0,1,14.762,27.8L4.526,40.965a2.5,2.5,0,0,0,3.948,3.07L18,31.79C17.026,31.144,16.984,31.112,16.936,31.073Z"/> <path d="M30.876,31.913,25.087,28.1l7.26-9.075,1.719,1.935a10.1,10.1,0,0,1,3.008-2.636l-4.6-5.181a4.576,4.576,0,0,0-.66-.652,4.482,4.482,0,0,0-1.614-.823L18.589,8.089a2,2,0,0,0-2.253.8l-4,6a2,2,0,1,0,3.328,2.218l3.173-4.758,5.873,1.808-7.224,9.029a4.5,4.5,0,0,0,.7,6.326c.06.047,7.782,5.152,7.782,5.152l-4.512,6.393a2.5,2.5,0,1,0,4.084,2.882l6-8.5a2.5,2.5,0,0,0-.666-3.528Z"/> <path d="M43.936,26.042a10.114,10.114,0,0,1-3.007,2.638l.576.648a2,2,0,1,0,2.99-2.656Z"/> <path d="M36,28a7.861,7.861,0,0,1-1.139-.089,1,1,0,0,1-.857-1A8.026,8.026,0,0,1,42,19a7.861,7.861,0,0,1,1.139.089,1,1,0,0,1,.857,1A8.026,8.026,0,0,1,36,28Z" data-color="color-2"/></g></svg>