<svg xmlns="http://www.w3.org/2000/svg" viewBox="0 0 48 48"><g class="nc-icon-wrapper"><circle cx="24" cy="8" r="5"/> <path d="M39.835,1.155a5.361,5.361,0,0,0-4.59,1.022,7.77,7.77,0,0,0-2.793,4.309c-.858,3.341.452,6.637,2.96,7.873l-1.12,4.364a1,1,0,0,0,.72,1.217.98.98,0,0,0,.25.032,1,1,0,0,0,.967-.751l1.121-4.366c.073,0,.147.014.22.014,2.714,0,5.33-2.233,6.165-5.485h0C44.694,5.645,42.944,1.953,39.835,1.155ZM41.8,8.887c-.686,2.669-2.905,4.411-4.947,3.891S33.7,9.654,34.39,6.984a5.766,5.766,0,0,1,2.053-3.206A3.63,3.63,0,0,1,38.6,3a2.917,2.917,0,0,1,.733.093C41.379,3.616,42.482,6.216,41.8,8.887Z" data-color="color-2"/> <path d="M26.951,32.01A2.5,2.5,0,0,0,25.4,30.168l-5.952-2.3-1.819,2.339,2.1,2.16a4.5,4.5,0,0,1,.875,1.308l1.713.663,1.732,8.654a2.5,2.5,0,0,0,4.9-.98Z"/> <path d="M34,21H27.786s-6.48-6.018-6.523-6.052a4.5,4.5,0,0,0-6.315.789l-7,9a4.491,4.491,0,0,0,.239,5.79c.032.037,5.46,5.624,5.46,5.624l-2.519,7.558a2.5,2.5,0,1,0,4.744,1.582l3-9a2.5,2.5,0,0,0-.578-2.532l-3.319-3.418c.023-.029.054-.049.077-.078l7-9c.02-.027.032-.057.052-.083l3.535,3.285A2,2,0,0,0,27,25h7a2,2,0,0,0,0-4Z"/></g></svg>