<svg xmlns="http://www.w3.org/2000/svg" viewBox="0 0 48 48"><g class="nc-icon-wrapper"><path d="M20,47C9.523,47,1,38.477,1,28S9.523,9,20,9c1.793,0,3.57,0.25,5.28,0.743 c0.531,0.153,0.837,0.707,0.684,1.238c-0.153,0.53-0.708,0.833-1.238,0.684C23.196,11.224,21.605,11,20,11c-9.374,0-17,7.626-17,17 s7.626,17,17,17s17-7.626,17-17c0-1.606-0.223-3.194-0.664-4.721c-0.153-0.53,0.153-1.085,0.684-1.238 c0.529-0.151,1.084,0.153,1.238,0.684C38.75,24.432,39,26.206,39,28C39,38.477,30.477,47,20,47z"/> <path d="M20,39c-6.065,0-11-4.935-11-11s4.935-11,11-11s11,4.935,11,11S26.065,39,20,39z M20,19 c-4.962,0-9,4.037-9,9s4.038,9,9,9s9-4.037,9-9S24.962,19,20,19z"/> <path data-color="color-2" d="M45.973,10.771c-0.08-0.338-0.328-0.609-0.657-0.719l-4.465-1.489l2.856-2.856 c0.391-0.391,0.391-1.023,0-1.414s-1.023-0.391-1.414,0l-2.856,2.856l-1.488-4.465c-0.11-0.329-0.382-0.577-0.719-0.657 c-0.34-0.078-0.692,0.021-0.937,0.267l-6,6c-0.268,0.268-0.361,0.664-0.242,1.023l1.805,5.414l-10.57,10.57 C20.894,25.113,20.462,25,20,25c-1.654,0-3,1.346-3,3s1.346,3,3,3s3-1.346,3-3c0-0.462-0.113-0.894-0.301-1.285L33.27,16.144 l5.413,1.804C38.788,17.983,38.894,18,39,18c0.261,0,0.517-0.103,0.707-0.293l6-6C45.952,11.462,46.053,11.107,45.973,10.771z"/></g></svg>