<svg xmlns="http://www.w3.org/2000/svg" viewBox="0 0 48 48"><g class="nc-icon-wrapper"><rect x="38" y="42" width="8" height="3" rx="1.5" ry="1.5" data-color="color-2"/> <circle cx="22" cy="7" r="5"/> <path d="M12.611,28.286,6.9,25.073A4.986,4.986,0,0,0,7,28.028l1.926,5.549L7.091,41.818A2.6,2.6,0,0,0,8.78,44.894a2.5,2.5,0,0,0,3.16-1.852l2-9a2.5,2.5,0,0,0-.036-1.23Z"/> <path d="M18,34.164v8.194a2.6,2.6,0,0,0,2.242,2.629A2.5,2.5,0,0,0,23,42.5V34.13l-7.4-4.161Z"/> <path d="M43.252,31.841,41.868,30.8a1,1,0,0,0-1.221.013L34.2,35.879,20.241,28.008,19.319,26.4l2.286-5.714L24.211,25.9a2,2,0,0,0,.759.82l5,3a2,2,0,0,0,2.833-.852,2.079,2.079,0,0,0-.876-2.638l-4.4-2.64-3.739-7.48a2,2,0,0,0-.8-.841l-7-4A2,2,0,0,0,15,11H7a2,2,0,0,0-1.838,1.212L2.2,19.114a2.075,2.075,0,0,0,.711,2.567,2,2,0,0,0,2.1.037L34.826,38.465a2,2,0,0,0,2.212-.168l6.228-4.87A1,1,0,0,0,43.252,31.841ZM8.318,15h3.657l-3.34,6.465-2.487-1.4Z"/></g></svg>