<svg xmlns="http://www.w3.org/2000/svg" viewBox="0 0 48 48"><g class="nc-icon-wrapper"><path d="M5,43v3c0,0.552,0.447,1,1,1h36c0.553,0,1-0.448,1-1v-3H5z"/> <path d="M43,21v-7H31c-0.553,0-1-0.448-1-1V1H6C5.447,1,5,1.448,5,2v19H43z"/> <polygon data-color="color-2" points="32,2.586 32,12 41.414,12 "/> <path data-color="color-2" d="M46,23H2c-0.552,0-1,0.448-1,1v16c0,0.552,0.448,1,1,1h44c0.552,0,1-0.448,1-1V24 C47,23.448,46.552,23,46,23z M21.913,35.232c0,1.062-0.233,1.868-0.698,2.414s-1.164,0.818-2.095,0.818 c-0.387,0-0.754-0.037-1.101-0.112v-1.649c0.115,0.021,0.236,0.046,0.365,0.073c0.129,0.026,0.269,0.04,0.419,0.04 c0.351,0,0.602-0.105,0.752-0.316c0.15-0.212,0.226-0.573,0.226-1.086v-7.267h2.132V35.232z M25.644,30.65 c0.159,0.122,0.591,0.344,1.297,0.666c0.677,0.305,1.146,0.631,1.41,0.98c0.263,0.349,0.395,0.788,0.395,1.318 c0,0.487-0.124,0.919-0.371,1.297s-0.604,0.672-1.069,0.881c-0.465,0.21-1.012,0.314-1.638,0.314c-0.523,0-0.961-0.037-1.316-0.11 s-0.723-0.201-1.106-0.384v-1.891c0.405,0.208,0.825,0.37,1.262,0.486s0.838,0.174,1.203,0.174c0.315,0,0.546-0.054,0.693-0.163 s0.22-0.25,0.22-0.422c0-0.107-0.03-0.201-0.088-0.282c-0.06-0.08-0.154-0.162-0.285-0.244c-0.13-0.082-0.479-0.251-1.044-0.505 c-0.512-0.232-0.896-0.458-1.152-0.677c-0.256-0.219-0.446-0.469-0.569-0.752c-0.124-0.283-0.186-0.617-0.186-1.004 c0-0.724,0.263-1.288,0.79-1.692s1.25-0.606,2.17-0.606c0.813,0,1.642,0.188,2.487,0.563l-0.65,1.638 c-0.734-0.336-1.368-0.504-1.901-0.504c-0.276,0-0.476,0.048-0.602,0.145s-0.188,0.217-0.188,0.359 C25.404,30.391,25.484,30.528,25.644,30.65z"/></g></svg>