<svg xmlns="http://www.w3.org/2000/svg" viewBox="0 0 48 48"><g class="nc-icon-wrapper"><path d="M25.293,37.293,10.707,22.707a1,1,0,0,0-1.414,0L7.707,24.293a1,1,0,0,0,0,1.414l2.465,2.465a4,4,0,0,1,0,5.656L3.707,40.293l-1-1a1,1,0,0,0-1.414,1.414l6,6a1,1,0,0,0,1.414-1.414l-1-1,6.469-6.469a4,4,0,0,1,5.662,0l2.455,2.463a1,1,0,0,0,1.415,0l1.585-1.585A1,1,0,0,0,25.293,37.293Z"/><path d="M46.707,1.293a.989.989,0,0,0-.859-.281l-13,2a1,1,0,0,0-.619.351L15.022,24.194l3.685,3.685L38.293,8.293a1,1,0,0,1,1.414,1.414L20.121,29.293l3.685,3.685L44.637,15.771a1,1,0,0,0,.351-.619l2-13A1,1,0,0,0,46.707,1.293Z" data-color="color-2"/></g></svg>